<?xml version="1.0" encoding="utf-8"?>
<!-- Generator: Adobe Illustrator 20.0.0, SVG Export Plug-In . SVG Version: 6.00 Build 0)  -->
<svg version="1.1" xmlns="http://www.w3.org/2000/svg" xmlns:xlink="http://www.w3.org/1999/xlink" x="0px" y="0px"
	 viewBox="0 0 200 200" style="enable-background:new 0 0 200 200;" xml:space="preserve">
<style type="text/css">
	.st0{fill:#495557;}
	.st1{display:none;}
	.st2{display:inline;}
</style>
<g id="Layer_1">
	<g>
		<g>
			<path class="st0" d="M85,169.8c-32-6.9-56.3-35.6-56.3-69.8C28.7,65.7,53,37.1,85,30.2V7.6C40,14.8,6.5,53.4,6.5,100
				S40,185.2,85,192.4V169.8z"/>
			<path class="st0" d="M100.1,6.4c-0.1,0-0.1,0-0.1,0v22.2c0,0,0,0,0.1,0c39.5,0,71.4,32,71.4,71.5c0,39.5-31.9,71.5-71.3,71.5
				c-0.1,0-0.2,0-0.2,0v22.2c0,0,0,0,0.1,0c51.7,0,93.6-41.9,93.6-93.6S151.9,6.4,100.1,6.4z"/>
		</g>
		<rect x="110.8" y="17" class="st0" width="19.4" height="165.1"/>
	</g>
</g>
<g id="Layer_2" class="st1">
	<g class="st2">
		<path d="M100.1,22.5c-42.8,0-77.5,34.7-77.5,77.5c0,42.8,34.7,77.5,77.5,77.5s77.5-34.7,77.5-77.5
			C177.6,57.2,142.9,22.5,100.1,22.5z M100.1,157.8c-31.9,0-57.8-25.9-57.8-57.8c0-31.9,25.9-57.8,57.8-57.8s57.8,25.9,57.8,57.8
			C157.9,132,132,157.8,100.1,157.8z"/>
	</g>
</g>
</svg>
